<mxfile host="app.diagrams.net" agent="Mozilla/5.0 (Windows NT 10.0; Win64; x64; rv:130.0) Gecko/20100101 Firefox/130.0" version="24.7.13">
  <diagram name="Page-1" id="vETeGXP-aBrHGzmp88HL">
    <mxGraphModel dx="567" dy="301" grid="1" gridSize="10" guides="1" tooltips="1" connect="1" arrows="1" fold="1" page="1" pageScale="1" pageWidth="850" pageHeight="1100" math="0" shadow="0">
      <root>
        <mxCell id="0" />
        <mxCell id="1" parent="0" />
        <mxCell id="kQhyqeaXJ8b2iKmB3cDd-1" value="&lt;b style=&quot;font-size: 14px;&quot;&gt;User Flowchart&lt;br&gt;&lt;/b&gt;" style="text;html=1;align=center;verticalAlign=middle;whiteSpace=wrap;rounded=0;" vertex="1" parent="1">
          <mxGeometry x="150" y="60" width="60" height="30" as="geometry" />
        </mxCell>
        <mxCell id="kQhyqeaXJ8b2iKmB3cDd-8" style="edgeStyle=orthogonalEdgeStyle;rounded=0;orthogonalLoop=1;jettySize=auto;html=1;exitX=1;exitY=0.5;exitDx=0;exitDy=0;entryX=0;entryY=0.5;entryDx=0;entryDy=0;" edge="1" parent="1" source="kQhyqeaXJ8b2iKmB3cDd-2" target="kQhyqeaXJ8b2iKmB3cDd-7">
          <mxGeometry relative="1" as="geometry" />
        </mxCell>
        <mxCell id="kQhyqeaXJ8b2iKmB3cDd-2" value="Input screen" style="rounded=0;whiteSpace=wrap;html=1;" vertex="1" parent="1">
          <mxGeometry x="120" y="100" width="120" height="60" as="geometry" />
        </mxCell>
        <mxCell id="kQhyqeaXJ8b2iKmB3cDd-3" value="Input list:" style="swimlane;fontStyle=0;childLayout=stackLayout;horizontal=1;startSize=30;horizontalStack=0;resizeParent=1;resizeParentMax=0;resizeLast=0;collapsible=1;marginBottom=0;whiteSpace=wrap;html=1;" vertex="1" parent="1">
          <mxGeometry x="120" y="160" width="120" height="120" as="geometry" />
        </mxCell>
        <mxCell id="kQhyqeaXJ8b2iKmB3cDd-4" value="&lt;font style=&quot;font-size: 10px;&quot;&gt;amount of nodes to open&lt;/font&gt;" style="text;strokeColor=none;fillColor=none;align=left;verticalAlign=middle;spacingLeft=4;spacingRight=4;overflow=hidden;points=[[0,0.5],[1,0.5]];portConstraint=eastwest;rotatable=0;whiteSpace=wrap;html=1;" vertex="1" parent="kQhyqeaXJ8b2iKmB3cDd-3">
          <mxGeometry y="30" width="120" height="30" as="geometry" />
        </mxCell>
        <mxCell id="kQhyqeaXJ8b2iKmB3cDd-5" value="&lt;font style=&quot;font-size: 10px;&quot;&gt;path length&lt;br&gt;&lt;/font&gt;" style="text;strokeColor=none;fillColor=none;align=left;verticalAlign=middle;spacingLeft=4;spacingRight=4;overflow=hidden;points=[[0,0.5],[1,0.5]];portConstraint=eastwest;rotatable=0;whiteSpace=wrap;html=1;" vertex="1" parent="kQhyqeaXJ8b2iKmB3cDd-3">
          <mxGeometry y="60" width="120" height="30" as="geometry" />
        </mxCell>
        <mxCell id="kQhyqeaXJ8b2iKmB3cDd-6" value="&lt;font style=&quot;font-size: 10px;&quot;&gt;url&lt;br&gt;&lt;/font&gt;" style="text;strokeColor=none;fillColor=none;align=left;verticalAlign=middle;spacingLeft=4;spacingRight=4;overflow=hidden;points=[[0,0.5],[1,0.5]];portConstraint=eastwest;rotatable=0;whiteSpace=wrap;html=1;" vertex="1" parent="kQhyqeaXJ8b2iKmB3cDd-3">
          <mxGeometry y="90" width="120" height="30" as="geometry" />
        </mxCell>
        <mxCell id="kQhyqeaXJ8b2iKmB3cDd-10" value="False" style="edgeStyle=orthogonalEdgeStyle;rounded=0;orthogonalLoop=1;jettySize=auto;html=1;exitX=0.5;exitY=1;exitDx=0;exitDy=0;entryX=1;entryY=0.75;entryDx=0;entryDy=0;" edge="1" parent="1" source="kQhyqeaXJ8b2iKmB3cDd-7" target="kQhyqeaXJ8b2iKmB3cDd-2">
          <mxGeometry relative="1" as="geometry" />
        </mxCell>
        <mxCell id="kQhyqeaXJ8b2iKmB3cDd-7" value="&lt;div style=&quot;font-size: 10px;&quot;&gt;&lt;font style=&quot;font-size: 10px;&quot;&gt;check if &lt;font style=&quot;font-size: 10px;&quot;&gt;&lt;font style=&quot;font-size: 10px;&quot;&gt;path length and amount of nodes values are valid&lt;/font&gt;&lt;font style=&quot;font-size: 10px;&quot;&gt;&lt;br&gt;&lt;/font&gt;&lt;/font&gt;&lt;/font&gt;&lt;/div&gt;" style="rhombus;whiteSpace=wrap;html=1;" vertex="1" parent="1">
          <mxGeometry x="315" y="90" width="125" height="70" as="geometry" />
        </mxCell>
        <mxCell id="kQhyqeaXJ8b2iKmB3cDd-9" value="True" style="endArrow=classic;html=1;rounded=0;exitX=1;exitY=0.5;exitDx=0;exitDy=0;entryX=0;entryY=0.417;entryDx=0;entryDy=0;entryPerimeter=0;" edge="1" parent="1" source="kQhyqeaXJ8b2iKmB3cDd-7" target="kQhyqeaXJ8b2iKmB3cDd-12">
          <mxGeometry width="50" height="50" relative="1" as="geometry">
            <mxPoint x="370" y="190" as="sourcePoint" />
            <mxPoint x="520" y="125" as="targetPoint" />
          </mxGeometry>
        </mxCell>
        <mxCell id="kQhyqeaXJ8b2iKmB3cDd-12" value="send to server and receive response" style="rounded=0;whiteSpace=wrap;html=1;" vertex="1" parent="1">
          <mxGeometry x="490" y="100" width="120" height="60" as="geometry" />
        </mxCell>
        <mxCell id="kQhyqeaXJ8b2iKmB3cDd-13" value="" style="endArrow=classic;html=1;rounded=0;exitX=1;exitY=0.5;exitDx=0;exitDy=0;entryX=0;entryY=0.5;entryDx=0;entryDy=0;" edge="1" parent="1" source="kQhyqeaXJ8b2iKmB3cDd-12" target="kQhyqeaXJ8b2iKmB3cDd-15">
          <mxGeometry width="50" height="50" relative="1" as="geometry">
            <mxPoint x="720" y="190" as="sourcePoint" />
            <mxPoint x="680" y="130" as="targetPoint" />
          </mxGeometry>
        </mxCell>
        <mxCell id="kQhyqeaXJ8b2iKmB3cDd-16" value="False - gets error message from the server" style="edgeStyle=orthogonalEdgeStyle;rounded=0;orthogonalLoop=1;jettySize=auto;html=1;exitX=0.5;exitY=1;exitDx=0;exitDy=0;entryX=1;entryY=0.5;entryDx=0;entryDy=0;" edge="1" parent="1" source="kQhyqeaXJ8b2iKmB3cDd-15" target="kQhyqeaXJ8b2iKmB3cDd-5">
          <mxGeometry relative="1" as="geometry">
            <mxPoint x="689.5294117647059" y="210" as="targetPoint" />
          </mxGeometry>
        </mxCell>
        <mxCell id="kQhyqeaXJ8b2iKmB3cDd-17" value="True" style="edgeStyle=orthogonalEdgeStyle;rounded=0;orthogonalLoop=1;jettySize=auto;html=1;exitX=1;exitY=0.5;exitDx=0;exitDy=0;entryX=0;entryY=0.5;entryDx=0;entryDy=0;" edge="1" parent="1" source="kQhyqeaXJ8b2iKmB3cDd-15" target="kQhyqeaXJ8b2iKmB3cDd-18">
          <mxGeometry relative="1" as="geometry">
            <mxPoint x="840" y="130" as="targetPoint" />
          </mxGeometry>
        </mxCell>
        <mxCell id="kQhyqeaXJ8b2iKmB3cDd-15" value="can the server create path with such length?" style="rhombus;whiteSpace=wrap;html=1;" vertex="1" parent="1">
          <mxGeometry x="630" y="90" width="120" height="80" as="geometry" />
        </mxCell>
        <mxCell id="kQhyqeaXJ8b2iKmB3cDd-18" value="Client receives nodes path from server" style="rounded=0;whiteSpace=wrap;html=1;" vertex="1" parent="1">
          <mxGeometry x="820" y="100" width="120" height="60" as="geometry" />
        </mxCell>
      </root>
    </mxGraphModel>
  </diagram>
</mxfile>
